<svg xmlns="http://www.w3.org/2000/svg" width="30" height="35" viewBox="0 0 30 35">
    <g fill="none" fill-rule="evenodd" transform="translate(1 1)">
        <rect width="28" height="28" y="4.111" fill="#F26A36" fill-opacity=".185" stroke="#F26A36" stroke-linecap="round" stroke-linejoin="round" stroke-width="2" rx="2"/>
        <path stroke="#F26A36" stroke-linecap="round" stroke-linejoin="round" stroke-width="2" d="M20.222 0v6.222M7.778 0v6.222M0 13.444h28"/>
        <path fill="#F26A36" d="M10.127 27C7.995 27 7 25.038 7 22.994 7 20.951 7.995 19 10.127 19c2.132 0 3.127 1.95 3.127 3.994 0 2.044-.995 4.006-3.127 4.006zm0-1.765c.875 0 1.225-.87 1.225-2.24s-.35-2.23-1.225-2.23c-.875 0-1.225.86-1.225 2.23s.35 2.24 1.225 2.24zM16.917 27c-1.29 0-2.264-.43-2.93-1.126l1.016-1.405c.503.5 1.192.766 1.892.766.798 0 1.192-.418 1.192-.894 0-.522-.383-.894-1.137-.894-.58 0-1.04.174-1.444.58l-1.3-.336v-4.575h5.291v1.742h-3.411v1.498c.35-.36.918-.616 1.563-.616 1.247 0 2.351.952 2.351 2.52 0 1.672-1.192 2.74-3.083 2.74z"/>
    </g>
</svg>
