<svg xmlns="http://www.w3.org/2000/svg" width="32" height="32" viewBox="0 0 32 32">
    <path fill="#F26A36" fill-opacity=".185" fill-rule="evenodd" stroke="#F26A36" stroke-linecap="round" stroke-linejoin="round" stroke-width="2" d="M30.888 27.93a3.006 3.006 0 0 1-3.276 3.006 29.74 29.74 0 0 1-12.97-4.614 29.305 29.305 0 0 1-9.016-9.017A29.74 29.74 0 0 1 1.012 4.276 3.006 3.006 0 0 1 4.002 1h4.51a3.006 3.006 0 0 1 3.005 2.585c.19 1.443.543 2.86 1.052 4.223a3.006 3.006 0 0 1-.677 3.17l-1.908 1.91A24.045 24.045 0 0 0 19 21.903l1.908-1.909a3.006 3.006 0 0 1 3.171-.676c1.364.509 2.78.862 4.223 1.052a3.006 3.006 0 0 1 2.585 3.05v4.51z"/>
</svg>
