<svg xmlns="http://www.w3.org/2000/svg" width="38" height="39" viewBox="0 0 38 39">
    <g fill="#A7A7A7" fill-rule="nonzero">
        <path d="M27.179 38.391c-1.402 0-3.096-.351-4.957-1.054-4.083-1.54-8.525-4.581-12.508-8.564-3.984-3.983-7.025-8.426-8.565-12.509-1.401-3.711-1.405-6.76-.012-8.152.201-.202.406-.417.617-.638 1.274-1.338 2.737-2.856 4.618-2.776 1.314.054 2.587.87 3.892 2.491 3.849 4.79 2.115 6.497.106 8.476l-.355.351c-.328.329-.95 1.851 4.829 7.63 1.886 1.885 3.494 3.266 4.78 4.101.81.527 2.255 1.322 2.849.728l.357-.36c1.978-2.007 3.685-3.736 8.471.112 1.622 1.302 2.436 2.575 2.491 3.89.078 1.906-1.44 3.346-2.778 4.62-.22.209-.436.413-.637.614-.696.692-1.802 1.04-3.198 1.04zM6.238 5.828c-1.355 0-2.579 1.288-3.661 2.427-.218.226-.43.45-.637.657-1.038 1.037-.932 3.766.27 6.952C3.694 19.8 6.644 24.1 10.515 27.973c3.872 3.87 8.171 6.82 12.107 8.304 3.189 1.204 5.916 1.306 6.954.269.207-.208.43-.418.657-.636 1.164-1.106 2.484-2.359 2.426-3.75-.039-.956-.735-1.983-2.069-3.054-3.99-3.206-5.103-2.075-6.953-.2l-.363.367c-.883.885-2.32.688-4.268-.578-1.351-.879-3.022-2.31-4.964-4.252-4.795-4.795-6.33-7.729-4.828-9.233l.36-.357c1.88-1.85 3.014-2.966-.193-6.957C8.309 6.565 7.28 5.87 6.325 5.83l-.087-.001z"/>
        <path d="M30.944 29.232a.566.566 0 0 1-.334-1.025 15.026 15.026 0 0 0 3.102-3.04 14.838 14.838 0 0 0 3.049-9.059c0-8.257-6.716-14.975-14.973-14.975-2.501 0-4.978.63-7.16 1.82a.566.566 0 1 1-.543-.994A16.132 16.132 0 0 1 21.789 0c8.882 0 16.107 7.226 16.107 16.108 0 3.554-1.134 6.923-3.282 9.745a16.172 16.172 0 0 1-3.335 3.271.568.568 0 0 1-.334.108z"/>
        <path d="M18.635 9.98c.676-.203 1.324-.33 2.023-.33 1.81 0 2.915.903 2.915 2.444 0 .852-.471 1.501-1.476 2.163l-2.024 1.361c-.624.42-.904 1.083-.904 1.796h4.136c.09 0 .14.05.14.14v.98c0 .088-.05.139-.14.139H17.87c-.088 0-.14-.051-.14-.14v-.61c0-1.553.51-2.673 1.654-3.424l2.012-1.337c.509-.344.737-.675.737-1.068 0-.713-.56-1.171-1.477-1.171-.572 0-1.12.102-1.603.266l-.739.243c-.074.025-.14-.014-.165-.09l-.318-.954c-.038-.076 0-.14.089-.166l.715-.241zM31.43 16.255c0 .09-.05.141-.14.141h-.788v2.139c0 .088-.051.14-.14.14h-1.145c-.09 0-.14-.052-.14-.14v-2.139H24.81c-.088 0-.14-.051-.14-.14v-1.07c0-.075.014-.126.065-.177a17.2 17.2 0 0 0 .904-1.133l2.355-3.03c.241-.318.432-.624.648-.98a.206.206 0 0 1 .178-.088h1.54c.089 0 .14.051.14.14v5.218h.789c.088 0 .139.05.139.14v.98h.001zm-2.354-3.322c0-.407.025-.815.076-1.248.025-.153-.088-.191-.19-.05l-2.063 2.621a5.36 5.36 0 0 1-.585.687c-.09.102-.039.19.063.19h2.7v-2.2z"/>
    </g>
</svg>
