<svg xmlns="http://www.w3.org/2000/svg" width="12" height="12" viewBox="0 0 12 12">
    <g fill="none" fill-rule="nonzero">
        <path fill="#FA3A62" d="M10.856 5.69l.499-1.302a.356.356 0 0 0-.108-.404l-1.083-.878-.219-1.377a.355.355 0 0 0-.295-.295l-1.378-.22L7.395.133a.356.356 0 0 0-.403-.108l-1.303.5-1.302-.5a.355.355 0 0 0-.403.108l-.877 1.083-1.378.22a.356.356 0 0 0-.295.294l-.219 1.378-1.083.877a.356.356 0 0 0-.108.404l.5 1.302-.5 1.302a.355.355 0 0 0 .108.403l1.083.877.22 1.377a.355.355 0 0 0 .294.296l1.378.219.877 1.082c.098.121.26.164.404.108l1.301-.498 1.302.5a.357.357 0 0 0 .404-.11l.877-1.082 1.378-.219a.356.356 0 0 0 .295-.296l.22-1.377 1.082-.877a.355.355 0 0 0 .108-.403l-.5-1.302z"/>
        <g fill="#FAFAFA">
            <path d="M4.623 4.979a1.068 1.068 0 0 1-1.067-1.067 1.068 1.068 0 0 1 2.133 0c0 .588-.478 1.067-1.066 1.067zm0-1.423a.356.356 0 1 0 0 .712.356.356 0 0 0 0-.712zM6.756 8.534a1.068 1.068 0 0 1-1.067-1.067 1.068 1.068 0 0 1 2.133 0c0 .589-.478 1.067-1.066 1.067zm0-1.422a.357.357 0 0 0-.356.355.357.357 0 0 0 .711 0 .357.357 0 0 0-.355-.355zM3.912 8.534a.355.355 0 0 1-.289-.562l3.555-4.978a.355.355 0 1 1 .58.413L4.201 8.385a.357.357 0 0 1-.29.15z"/>
        </g>
    </g>
</svg>
