<svg xmlns="http://www.w3.org/2000/svg" width="20" height="38" viewBox="0 0 20 38">
    <path fill="#4B59AF" fill-rule="evenodd" d="M19.211.431L14.423.424c-5.38 0-8.856 3.567-8.856 9.087v4.19H.752a.752.752 0 0 0-.752.752v6.071c0 .414.338.752.752.752h4.815v15.318c0 .414.337.752.754.752H12.6a.753.753 0 0 0 .754-.752V21.276h5.628a.752.752 0 0 0 .753-.752l.003-6.071a.752.752 0 0 0-.754-.752h-5.63v-3.552c0-1.707.407-2.574 2.63-2.574l3.225-.002a.752.752 0 0 0 .752-.752V1.185a.753.753 0 0 0-.75-.754"/>
</svg>
