<svg xmlns="http://www.w3.org/2000/svg" width="42" height="41" viewBox="0 0 42 41">
    <g fill="none" fill-rule="nonzero" transform="translate(1.2 1)">
        <circle cx="19.632" cy="19.632" r="19.632" stroke="#A7A7A7" stroke-width="1.2"/>
        <g fill="#A7A7A7">
            <path d="M16.922 15.487a.105.105 0 0 0 .092-.144l-.677-1.686a.105.105 0 0 0-.162-.045c-.104.079-.223.155-.35.235-.268.17-.545.347-.728.577a.105.105 0 0 0-.012.113c.571 1.153.353 2.961.178 4.415-.04.337-.079.656-.105.944-.092 1.03-.939 1.491-1.737 1.491-.577 0-1.08-.245-1.312-.64-.249-.423-.191-.987.167-1.63a.105.105 0 0 0-.008-.116.118.118 0 0 0-.095-.047c-.246 0-1.253 1.466-1.306 2.563-.028.593.204 1.325 1.47 1.446.112.01.23.016.352.016 1.226 0 3.229-.594 3.38-2.19.023-.233.035-.612.049-1.052.042-1.366.13-4.21.804-4.25zM29.02 20.075a2.587 2.587 0 0 1-1.472-.69 28.958 28.958 0 0 1-.498-.455c-.462-.43-.94-.874-1.47-1.211a.729.729 0 0 0-.398-.115c-.728 0-1.497.941-1.576 1.51-.037.27.074.462.305.527a.106.106 0 0 0 .113-.04c.232-.315.455-.468.682-.468.317 0 .65.294 1.005.605.147.13.297.262.456.384-.546.067-1.061.102-1.502.102-.845 0-1.863-.127-1.916-.728-.099-1.106.098-2.284.288-3.422.1-.6.204-1.22.261-1.815a.106.106 0 0 0-.16-.1c-1.066.65-1.439 1.622-1.833 2.65-.266.695-.541 1.412-1.047 2.096-.293-2.058-1.076-3.624-2.389-4.78a.106.106 0 0 0-.173.057c-.041.188-.092.377-.141.56-.253.936-.491 1.821.614 2.487a.106.106 0 0 0 .16-.081l.011-.127c.633.917.983 1.738 1.152 2.69-.294.257-.724.484-1.14.703-.523.276-1.064.56-1.355.918a.106.106 0 0 0 .003.137c.397.444.828.669 1.282.669 1.574 0 2.982-2.673 3.625-4.109l-.009.06c-.242 1.555-.491 3.162 1.421 3.665a13.4 13.4 0 0 0 .589.015c.768 0 4.626-.075 5.198-1.551a.105.105 0 0 0-.085-.143zM15.134 25.13h-.963v-1.324h-.687v3.31h.687v-1.392h.963v1.391h.687v-3.309h-.687zM16.946 23.798l-.828 3.317h.738l.158-.712h.81l.16.712h.735l-.827-3.317h-.946zm.2 2.01l.27-1.217.272 1.218h-.543zM19.703 23.806h-.687v3.31h1.91v-.595h-1.223zM21.876 23.798l-.828 3.317h.739l.156-.712h.81l.162.712h.734l-.827-3.317h-.946zm.2 2.01l.27-1.217.272 1.218h-.543zM24.634 23.806h-.688v3.31h1.91v-.595h-1.222z"/>
        </g>
    </g>
</svg>
