<svg xmlns="http://www.w3.org/2000/svg" width="207" height="201" viewBox="0 0 207 201">
    <g fill="none" fill-rule="nonzero">
        <path fill="#F9F9FA" d="M155.589 133.17c85.26-7.449 48.307-92.488 0-120.378C126.303-4.117 65.66-7.121 47.137 21.032 35.105 39.32 31.343 35.283 20.36 54.305-7.53 102.61-15.818 166.199 62.617 189.797c78.436 23.597 7.712-49.18 92.972-56.628zM178.977 172.338c-7.021-7.799-19.035-8.428-26.833-1.407-7.798 7.022-18.788 15.112-11.766 22.91 3.164 3.515 9.465-2.703 16.127-1.27 8.119 1.748 16.783 10.456 21.066 6.6 7.798-7.022 8.428-19.035 1.406-26.833z" opacity=".255"/>
        <g transform="translate(43.538 52)">
            <path fill="#FF5B00" d="M23.731 122.66C9.694 136.697 5.16 136.05 2.136 133.026c-3.24-3.24-3.671-7.774 10.366-21.595 14.036-14.037 32.392-27.426 35.632-24.187 3.239 3.24-10.366 21.38-24.403 35.416z"/>
            <path fill="#FF7900" d="M42.519 87.676c-7.342 3.24-20.084 13.173-30.233 23.539-9.718 9.718-12.31 14.684-12.094 18.14 3.24.863 8.423-1.296 19.004-11.878 10.15-10.15 19.868-22.459 23.323-29.8z"/>
            <path fill="#D64700" d="M25.459 99.337a55.344 55.344 0 0 0 10.365 9.718c8.422-10.365 14.253-19.867 12.094-22.027-2.16-2.375-11.878 3.671-22.46 12.31z"/>
            <path fill="#E04805" d="M36.256 91.347l-.216.216c-.432.216-.863.648-1.511.864-.216.216-.432.432-.648.432-.432.216-.648.432-1.08.648-.432.216-.648.432-1.08.864-.216.216-.432.431-.864.647-.431.216-.863.648-1.295 1.08-.216.216-.432.216-.432.432-.432.432-1.08.864-1.512 1.296l-.216.216c-.648.432-1.08.864-1.727 1.511 1.727 1.944 3.455 3.672 5.182 5.4 5.4-6.48 9.718-12.742 11.878-17.061-1.944.648-4.103 1.728-6.479 3.455z"/>
            <circle cx="74.48" cy="57.443" r="57.443" fill="#064059"/>
            <path fill="#03263A" d="M33.88 16.844c22.46-22.459 58.74-22.459 81.198 0 22.46 22.46 22.46 58.739 0 81.198"/>
            <circle cx="74.48" cy="57.443" r="45.35" fill="#748184"/>
            <path fill="#5D6F77" d="M28.914 57.443c0-25.05 20.3-45.35 45.35-45.35s45.35 20.3 45.35 45.35"/>
            <path fill="#4B5D63" d="M45.11 28.29c17.276-17.277 44.918-17.708 62.842-1.296-.432-.432-.864-1.08-1.296-1.512-17.708-17.708-46.43-17.708-64.353 0-17.708 17.708-17.708 46.43 0 64.354.432.431 1.08.863 1.512 1.295-16.413-17.924-15.98-45.565 1.295-62.841z"/>
            <path fill="#D64700" d="M10.342 124.604c1.08 1.08.432 3.455-.648 4.535a2.737 2.737 0 0 1-3.887 0 2.737 2.737 0 0 1 0-3.887c1.08-1.08 3.455-1.728 4.535-.648z"/>
            <circle cx="7.751" cy="127.195" r="2.807" fill="#064059"/>
            <path fill="#4B5D63" d="M105.36 33.256c11.878 11.878 14.253 37.36 0 51.397-14.252 14.253-39.734 11.877-51.396 0-11.661-11.878-1.943-24.835 12.31-38.871 14.252-14.037 27.21-24.403 39.087-12.526z"/>
            <path fill="#F4F3EA" d="M105.36 33.256c11.878 11.878 9.934 33.04-4.318 47.078-14.253 14.253-35.416 16.196-47.078 4.319-11.661-11.878-1.943-24.835 12.31-38.871 14.252-14.037 27.21-24.403 39.087-12.526z"/>
            <path fill="#FFFEF5" d="M104.065 32.177c-.648-.648-1.296-1.296-1.944-1.728-11.013-7.342-22.89 2.376-35.848 15.117-14.252 14.252-24.402 27.21-12.525 39.087 1.08 1.08 2.16 1.943 3.456 2.807C68 94.155 80.526 88.972 92.835 76.663c14.253-14.253 22.891-32.609 11.23-44.486z"/>
            <g fill="#F4F3EA" transform="translate(52.098 32.393)">
                <circle cx="1.866" cy="40.167" r="1.728"/>
                <circle cx="47" cy="21.595" r="1.08"/>
                <circle cx="20.87" cy="49.885" r="1.728"/>
                <circle cx="41.601" cy="28.506" r="2.16"/>
                <circle cx="42.465" cy="1.512" r="1.512"/>
                <circle cx="49.375" cy="4.751" r="1"/>
                <circle cx="13.959" cy="47.293" r="1"/>
                <circle cx="42.033" cy="35.416" r="1"/>
                <circle cx="7.265" cy="47.509" r="1"/>
                <circle cx="46.136" cy="10.366" r="1"/>
                <circle cx="10.504" cy="42.11" r="1"/>
                <path d="M40.09 11.877c3.887 5.183.863 14.469-6.695 20.3-7.558 5.83-17.06 6.046-20.947.863-3.887-5.182-.864-14.036 6.91-19.867 7.342-5.83 16.844-6.479 20.731-1.296z"/>
            </g>
            <path fill="#FFB600" d="M92.188 44.27c3.887 5.183.431 10.582-7.343 16.412-7.558 5.83-16.628 9.934-20.515 4.751-3.887-5.183-.864-14.037 6.91-19.867 7.559-5.831 17.06-6.479 20.948-1.296z"/>
            <g fill="#FFCE00" transform="translate(63.166 41.57)">
                <path d="M22.111 5.075c2.808 3.887.216 7.774-5.398 12.093-5.615 4.32-12.31 7.342-15.333 3.671-2.807-3.887-.648-10.365 5.183-14.684 5.83-4.32 12.741-4.751 15.548-1.08zM25.567 3.131c0 .648-1.728.864-2.376.864-.648 0-1.08-.432-1.08-1.08 0-.648.432-1.08 1.08-1.08.648 0 2.376.648 2.376 1.296z"/>
                <circle cx="25.817" cy="5.325" r="1"/>
                <circle cx="21.032" cy=".972" r="1"/>
            </g>
        </g>
    </g>
</svg>
