<svg xmlns="http://www.w3.org/2000/svg" width="23" height="23" viewBox="0 0 23 23">
    <g fill="#8CA1AC" fill-rule="evenodd">
        <path d="M22.636 16.066c0 1.965-.68 3.674-1.871 4.87-1.191 1.197-2.892 1.795-4.764 1.795H6.73c-1.872 0-3.573-.598-4.764-1.794C.69 19.74.095 18.03.095 16.066v-9.4C.095 2.735 2.732 0 6.73 0h9.356c1.957 0 3.573.684 4.764 1.88 1.19 1.196 1.786 2.82 1.786 4.786v9.4zM15.611 2.84h-8.57c-1.246 0-2.337.393-3.038 1.1-.701.707-1.09 1.807-1.09 3.064v8.642c0 1.257.389 2.357 1.168 3.143.78.707 1.792 1.1 3.038 1.1h8.492c1.247 0 2.338-.393 3.039-1.1.779-.707 1.168-1.807 1.168-3.064V7.084c0-1.257-.39-2.278-1.09-3.064-.78-.786-1.792-1.179-3.117-1.179z"/>
        <path d="M17.365 6.841a1.397 1.397 0 0 1-1.408-1.42c0-.8.616-1.421 1.408-1.421.793 0 1.41.622 1.41 1.42 0 .8-.617 1.421-1.41 1.421zm-5.676 9.945c-3.126 0-5.594-2.59-5.594-5.682 0-3.176 2.55-5.683 5.594-5.683 3.044 0 5.676 2.507 5.676 5.683a5.662 5.662 0 0 1-5.676 5.682zm.041-2.841c1.556 0 2.818-1.272 2.818-2.841 0-1.57-1.262-2.842-2.818-2.842s-2.818 1.272-2.818 2.842c0 1.569 1.262 2.84 2.818 2.84z"/>
    </g>
</svg>
