<svg xmlns="http://www.w3.org/2000/svg" xmlns:xlink="http://www.w3.org/1999/xlink" width="172" height="45" viewBox="0 0 172 45">
    <defs>
        <path id="a" d="M49.38 20.684c-.824 0-1.536.143-2.14.43-.602.287-1.1.68-1.492 1.177-.392.498-.684 1.09-.875 1.78a8.454 8.454 0 0 0-.287 2.267c0 .823.096 1.579.287 2.267a5.01 5.01 0 0 0 .89 1.794c.402.507.909.904 1.52 1.192.613.287 1.35.43 2.21.43.594 0 1.187-.067 1.78-.2a8.404 8.404 0 0 0 1.694-.575l.43 1.378a8.802 8.802 0 0 1-1.865.689c-.632.153-1.368.23-2.21.23-1.13 0-2.105-.183-2.928-.546a5.7 5.7 0 0 1-2.066-1.521 6.331 6.331 0 0 1-1.235-2.296 9.713 9.713 0 0 1-.401-2.842c0-1.014.133-1.961.401-2.841.268-.88.68-1.641 1.235-2.282.554-.641 1.253-1.144 2.095-1.507.842-.364 1.827-.546 2.956-.546.766 0 1.46.077 2.081.23.622.153 1.22.364 1.794.632-.057.23-.13.464-.215.703-.086.239-.158.464-.216.674a10.016 10.016 0 0 0-1.593-.516 8.015 8.015 0 0 0-1.85-.201zm15.412 5.568h-3.186c-1.377 0-2.416.277-3.114.832-.698.555-1.048 1.35-1.048 2.383 0 .86.259 1.511.775 1.951.517.44 1.158.66 1.923.66.708 0 1.35-.129 1.923-.387a4.614 4.614 0 0 0 1.464-1.019c.402-.42.713-.9.933-1.435.22-.536.33-1.072.33-1.607v-1.378zm0-2.124c0-1.244-.316-2.129-.947-2.655-.631-.526-1.473-.79-2.526-.79-.88 0-1.674.096-2.382.288a11.87 11.87 0 0 0-1.923.689 6.779 6.779 0 0 0-.244-.675 8.318 8.318 0 0 1-.244-.646c.517-.306 1.196-.579 2.038-.818.842-.239 1.78-.359 2.813-.359 1.78 0 3.1.445 3.96 1.335.862.89 1.292 2.11 1.292 3.66v9.127h-1.435l-.46-2.698c-.229.402-.487.78-.774 1.134-.287.354-.627.67-1.02.947a4.637 4.637 0 0 1-1.348.646c-.507.153-1.105.23-1.794.23a5.101 5.101 0 0 1-1.65-.26 3.642 3.642 0 0 1-2.239-2.052c-.22-.506-.33-1.095-.33-1.764 0-1.55.53-2.708 1.593-3.473 1.062-.766 2.55-1.148 4.463-1.148h3.157v-.718zm8.64 5.425c0 .822.129 1.44.387 1.851.258.411.77.617 1.536.617.44 0 .837-.043 1.19-.13.355-.085.685-.205.99-.358.077.249.154.469.23.66.077.192.154.412.23.66-.344.21-.756.378-1.234.503-.478.124-1.052.186-1.722.186-1.167 0-2.038-.315-2.612-.947-.574-.631-.861-1.636-.861-3.014v-8.639h-2.239v-1.521h2.239l.574-4.018h1.292v4.018h4.362v1.521h-4.362v8.61zm8.553-2.354c.115 1.53.588 2.717 1.42 3.56.833.841 2.024 1.262 3.574 1.262.631 0 1.268-.062 1.909-.187a7.625 7.625 0 0 0 1.765-.56l.43 1.378c-.593.268-1.243.484-1.951.646-.708.163-1.483.244-2.325.244-2.24 0-3.909-.65-5.009-1.951-1.1-1.302-1.65-3.052-1.65-5.253 0-1.014.124-1.961.373-2.841.249-.88.627-1.641 1.134-2.282a5.23 5.23 0 0 1 1.937-1.507c.785-.364 1.722-.546 2.813-.546 1.78 0 3.128.508 4.047 1.522.918 1.014 1.378 2.41 1.378 4.19 0 .44-.024.852-.072 1.234-.048.383-.12.747-.215 1.091h-9.558zm4.42-6.601c-.746 0-1.392.129-1.938.387a3.585 3.585 0 0 0-1.349 1.09 4.991 4.991 0 0 0-.803 1.665 9.457 9.457 0 0 0-.33 2.11h8.008c.038-.096.057-.268.057-.517v-.459c0-1.377-.277-2.435-.832-3.171-.555-.737-1.493-1.105-2.813-1.105zm10.993 1.55c.21-.345.45-.694.717-1.048.268-.354.57-.675.904-.962a4.51 4.51 0 0 1 1.12-.703 3.265 3.265 0 0 1 1.335-.273c.497 0 .875.044 1.133.13.259.086.445.158.56.215a9.311 9.311 0 0 0-.23.961 9.312 9.312 0 0 1-.23.962c-.401-.287-.927-.43-1.578-.43-.823 0-1.56.229-2.21.688-.65.46-1.177 1.1-1.579 1.923v9.673h-1.923V19.42h1.493l.488 2.727z"/>
        <path id="b" d="M106.736 33.284h-1.923V19.42h1.55l.43 2.44c.191-.307.435-.618.732-.933a6.265 6.265 0 0 1 1.004-.861 5.598 5.598 0 0 1 1.263-.646c.47-.172.981-.259 1.536-.259.918 0 1.67.273 2.253.819.584.545 1.01 1.277 1.277 2.195a7.516 7.516 0 0 1 1.98-2.11 4.552 4.552 0 0 1 2.756-.904c1.34 0 2.32.455 2.942 1.364.622.909.933 2.11.933 3.602v9.156h-1.894v-9.156c0-.976-.182-1.77-.546-2.382-.363-.613-.995-.919-1.894-.919-.88 0-1.665.287-2.354.861a7.122 7.122 0 0 0-1.664 1.98v9.616h-1.895v-9.156c0-.976-.186-1.77-.56-2.382-.373-.613-.99-.919-1.85-.919-.9 0-1.699.268-2.397.804a6.446 6.446 0 0 0-1.68 1.894v9.759zm21.957-6.946c0 .823.086 1.583.258 2.282.172.698.445 1.301.818 1.808.373.507.842.904 1.406 1.191.565.287 1.249.43 2.053.43.803 0 1.492-.143 2.066-.43a3.904 3.904 0 0 0 1.42-1.19c.374-.508.647-1.11.819-1.81a9.52 9.52 0 0 0 .258-2.281c0-.804-.086-1.555-.258-2.253-.172-.699-.445-1.296-.818-1.794a3.963 3.963 0 0 0-1.42-1.177c-.575-.287-1.264-.43-2.067-.43-.804 0-1.488.143-2.053.43a3.997 3.997 0 0 0-1.406 1.177c-.373.498-.646 1.095-.818 1.794a9.391 9.391 0 0 0-.258 2.253zm-1.895 0a9.9 9.9 0 0 1 .388-2.827c.258-.87.65-1.631 1.177-2.282a5.339 5.339 0 0 1 2.009-1.521c.813-.364 1.765-.546 2.856-.546 1.11 0 2.066.182 2.87.546.803.363 1.473.87 2.009 1.521.536.65.933 1.411 1.191 2.282a9.9 9.9 0 0 1 .388 2.827c0 1.014-.13 1.961-.388 2.842a6.399 6.399 0 0 1-1.191 2.296 5.493 5.493 0 0 1-2.01 1.52c-.803.364-1.76.546-2.87.546-1.09 0-2.042-.182-2.855-.545a5.339 5.339 0 0 1-2.01-1.521c-.526-.65-.918-1.416-1.176-2.296a10.048 10.048 0 0 1-.388-2.842zm18.284 6.946h-1.923V19.42h1.52l.431 2.41c.23-.286.517-.588.861-.903a7.18 7.18 0 0 1 2.584-1.507 5.232 5.232 0 0 1 1.664-.259c1.474 0 2.622.474 3.445 1.421.822.947 1.234 2.272 1.234 3.975v8.726h-1.895v-8.726c0-1.148-.277-2.052-.832-2.712-.555-.66-1.32-.99-2.296-.99-.995 0-1.909.253-2.741.76a6.923 6.923 0 0 0-2.052 1.88v9.788zm25.717 0h-2.268a298.026 298.026 0 0 0-2.899-3.674c-.363-.46-.722-.909-1.076-1.349l-.947-1.177a91.778 91.778 0 0 0-.689-.846c-.182-.22-.273-.34-.273-.36v-.717l5.54-5.74h2.267l-5.884 6.027 6.229 7.836zm-9.587 0h-1.923V13.853h1.923v19.43z"/>
    </defs>
    <g fill="none" fill-rule="evenodd">
        <circle cx="17.418" cy="26.647" r="17.418" fill="#F26A36" fill-rule="nonzero"/>
        <path fill="#F26A36" fill-rule="nonzero" d="M.536 24.476a16.4 16.4 0 0 1 4.21-9.191 19.853 19.853 0 0 1 4.4-3.58c.035-.12.1-.14.192-.06.168.301.231.65.18.99-.035 2.85.031 5.698-.045 8.548-.037 1.362.056 2.734.04 4.1-.01.956-.125 1.038-1.034.868-.91-.169-1.605.523-1.492 1.568a5.759 5.759 0 0 0 1.43 3.32 7.987 7.987 0 0 0 2.497 2.042c.103.05.2.11.292.178.91.641.903 1.102-.086 1.586-1.588.777-3.12 1.658-4.695 2.458-.3.153-.752.202-.75.7.12.382.648.55.549 1.046a.237.237 0 0 1-.335-.033 12.194 12.194 0 0 1-2.99-3.507 15.845 15.845 0 0 1-2.361-6.59c-.151-.288.024-.617-.138-.899v-2.466c.168-.346-.022-.734.136-1.078zM26.93 12.692a16.907 16.907 0 0 1 7.31 12.39c.015.084.034.167.058.248.11.906.11 1.823 0 2.73a18.005 18.005 0 0 1-2.805 7.845c-.248.37-.55.704-.827 1.053-.086.146-.168.303-.373.146-.139-.495.314-.723.49-1.076.156-.316.465-.552.477-.942-.27-.37-.708-.345-1.08-.425-1.309-.287-2.598-.64-3.9-.952-.271-.065-.634-.106-.703-.409-.078-.344.238-.554.492-.733a7.595 7.595 0 0 0 2.543-2.936 4.557 4.557 0 0 0 .452-2.401 1.117 1.117 0 0 0-1.388-1.117c-.891.11-.98.06-.987-.838-.022-2.793-.007-5.585-.008-8.379 0-1.112-.01-2.223.005-3.334a1.052 1.052 0 0 1 .244-.87z"/>
        <path fill="#1F1E1E" fill-rule="nonzero" d="M26.93 12.692v13.389c.201.095.331-.055.478-.107a1.31 1.31 0 0 1 1.913 1.23c.123 2.19-1.007 3.78-2.564 5.139-.355.31-.752.574-1.244.942 1.973.478 3.806.92 5.636 1.375.28.07.796.05.388.596-.348.254-.709.106-1.06.02-1.481-.367-2.955-.766-4.459-1.038a4.612 4.612 0 0 0-.98-.257 7.51 7.51 0 0 0-3.425 3.976c-.535 1.376-.877 2.821-1.297 4.238a2.16 2.16 0 0 1-.36.861.584.584 0 0 1-.74.133c-.288-.55.154-1.011.179-1.522.152-.539.287-1.081.523-1.7a44.735 44.735 0 0 0-4.847 2.597c-.337.263-.751.407-1.178.41a.593.593 0 0 1-.337-.144c-.082-.49.338-.624.625-.805a38.027 38.027 0 0 1 5.233-2.86c.412-.178.861-.31 1.028-.995a39.304 39.304 0 0 0-8.956 4.041c-.337.023-.62-.042-.707-.428a4.466 4.466 0 0 1 1.857-1.312 39.852 39.852 0 0 1 7.036-3.094 2.897 2.897 0 0 0 1.992-1.627c-2.98 1.34-5.836.87-8.605-.606a1.413 1.413 0 0 0-1.51.043c-1.702.925-3.444 1.777-5.15 2.699-.257.184-.567.28-.883.273-.528-.291-.293-.478.082-.67 1.84-.961 3.68-1.928 5.515-2.9.25-.131.498-.267.755-.406a2.897 2.897 0 0 0-1.216-.956 7.33 7.33 0 0 1-3.845-5.167c-.297-1.758.648-2.55 2.435-1.904v-14.44C9.16 7.884 9.22 4.051 9.21.22c0-.096.068-.15.113-.219 1.224.382 2.41.879 3.54 1.484 2.309 1.004 4.6 2.05 6.881 3.116.399.196.865.197 1.265.005 1.635-.678 3.273-1.35 4.901-2.042.26-.096.532-.154.809-.171.129.893.165 1.797.108 2.697-.033.876-.005 1.754.082 2.627l-.008.42c-.12 1.418-.12 2.845 0 4.264l.028.292z"/>
        <path fill="#F16C3A" fill-rule="nonzero" d="M13.58 42.78l.372.095c1.53-.095 3.055.048 4.582.078.242-.048.494-.005.706.12.224.036.454-.003.653-.112a2.924 2.924 0 0 1 1.34-.435c1.054-.29 2.09-.642 3.104-1.052.146-.084.292-.163.44-.242a14.959 14.959 0 0 0 2.24-1.386c.26-.191.491-.504.895-.368.16.205 0 .287-.145.376a15.049 15.049 0 0 1-5.733 3.047c-.903.34-1.856.53-2.82.562-.516.228-1.082-.04-1.6.16h-.564c-.463-.18-.962.031-1.426-.133a16.312 16.312 0 0 1-7.984-2.965 1.451 1.451 0 0 1-.217-.23c-.128-.14-.396-.245-.129-.49.055-.016.12-.042.164-.018a32.343 32.343 0 0 1 3.386 1.998c.158.175.38.282.616.297.77-.051 1.53.199 2.12.698z"/>
        <path fill="#F9F8F7" fill-rule="nonzero" d="M9.32 0l-.044 10.007c0 .57-.024 1.139-.037 1.708l-.05-.012h-.05c-.01-3.7-.017-7.399-.025-11.098C9.116.382 9.068.138 9.32 0z"/>
        <path fill="#F47746" fill-rule="nonzero" d="M27.772 39.86l.16-.349a6.123 6.123 0 0 1 2.392-2.391l.347-.157a10.085 10.085 0 0 1-2.899 2.898z"/>
        <path fill="#F37241" fill-rule="nonzero" d="M7.235 39.865l.191.432a3.9 3.9 0 0 1-1.54-1.283l.323.007c.697-.142.93.264 1.026.844z"/>
        <path fill="#F9F8F7" fill-rule="nonzero" d="M26.907 12.4c-.12-1.419-.12-2.846 0-4.265V12.4z"/>
        <path fill="#F5907B" fill-rule="nonzero" d="M7.235 39.865a1.763 1.763 0 0 0-1.026-.844l-.694-.867 6.472-3.445a.702.702 0 0 1 .786.017 9.526 9.526 0 0 0 9.13.748c.044-.02.107 0 .17.008a3.647 3.647 0 0 1-2.456 2.176 35.42 35.42 0 0 0-8.767 4.128c-1-.364-1.947-.862-2.814-1.48-.253-.167-.466-.42-.801-.44z"/>
        <path fill="#EC411C" fill-rule="nonzero" d="M30.319 37.12l-2.392 2.391a26.496 26.496 0 0 1-3.072 1.9c-.27-.665.118-1.268.183-1.902.036-.354.15-.7.168-1.06-.23 1.053-.487 2.093-.684 3.149a13.656 13.656 0 0 1-4.629 1.37c.479-1.656.876-3.34 1.454-4.962a7.532 7.532 0 0 1 3.688-4.252c.203.28-.007.486-.144.684a14.872 14.872 0 0 0-2.246 5.836 17.762 17.762 0 0 1 1.97-5.262c.3-.487.546-1.113 1.322-.998 1.903.25 3.718.897 5.599 1.244l-1.217 1.862z"/>
        <path fill="#D4D4D4" fill-rule="nonzero" d="M26.31 8.807l-6.906-3.123c2.239-.916 4.247-1.728 6.244-2.551.445-.183.676-.158.669.42-.023 1.695-.008 3.389-.008 5.254z"/>
        <path fill="#FFF" fill-rule="nonzero" d="M9.73 10.8c0-3.14.02-6.278-.016-9.417-.009-.737.162-.805.795-.514a2360 2360 0 0 0 15.259 6.943c.409.106.68.494.64.914-.027 3.88-.027 7.761 0 11.642 0 .583-.181.695-.72.693-5.079-.02-10.158-.02-15.237 0-.618 0-.74-.187-.733-.766.026-3.16.011-6.328.011-9.495z"/>
        <path fill="#F5907B" fill-rule="nonzero" d="M18.078 21.585h7.61c.328 0 .711-.096.697.466-.065 2.476.199 4.966-.222 7.424-.608 3.553-2.99 5.33-6.315 6.102a8.807 8.807 0 0 1-7.195-1.562 6.75 6.75 0 0 1-2.844-5.576c-.095-2.048-.025-4.103-.074-6.155-.014-.58.183-.717.73-.711 2.539.026 5.075.012 7.613.012z"/>
        <path fill="#EA411C" fill-rule="nonzero" d="M13.58 42.779l-2.115-.695a34.285 34.285 0 0 1 8.126-3.908c.345-.128.699-.235 1.11-.371.093.61-.263 1.2-.847 1.401a37.23 37.23 0 0 0-5.631 3.044c-.229.15-.527.232-.642.529z"/>
        <path fill="#EB411C" fill-rule="nonzero" d="M18.546 43.156a20.297 20.297 0 0 1-4.592-.277 4.728 4.728 0 0 0 1.559-.833 45.489 45.489 0 0 1 4.725-2.455l-.644 2.002c-.243.591-.756 1.005-1.048 1.563z"/>
        <path fill="#EF8D79" fill-rule="nonzero" d="M10.346 32.424a6.564 6.564 0 0 1-3.055-4.656c-.059-.497-.055-1.072.52-1.328.577-.255.952.105 1.422.636-.574-.117-1.018-.487-1.42-.053-.151.166-.346.368-.162.592.184.224.3.03.457-.12.395-.376.6.062.82.27.266.253.584.6.216.941-.81.752-.344 1.38.138 1.99a3.77 3.77 0 0 1 1.064 1.728z"/>
        <path fill="#F08D79" fill-rule="nonzero" d="M27.266 26.7a.902.902 0 0 1 1.154-.218c.419.235.419.653.407 1.052-.07 2.183-1.332 3.621-3.087 4.953a3.01 3.01 0 0 1 .983-1.606c.816-.884.827-1.197.191-2.225-.241-.388.057-.648.287-.88.23-.232.426-.623.831-.287.149.124.25.376.451.12.179-.225 0-.429-.152-.593-.25-.267-.574-.191-.88-.136-.186.062-.226-.018-.185-.18z"/>
        <path fill="#BB151C" fill-rule="nonzero" d="M25.937 34.014c-.706.159-.957.78-1.257 1.309a15.33 15.33 0 0 0-1.703 4.71c-.023.14-.059.277-.107.41-.077.192-.061.527-.406.398-.236-.089-.159-.334-.113-.525a15.385 15.385 0 0 1 2.617-6.322.67.67 0 0 0 .067-.244l.902.264z"/>
        <path fill="#BB191B" fill-rule="nonzero" d="M18.546 43.155c-.182-.126-.17-.268-.031-.417l1.078-1.148-.352 1.483-.695.082z"/>
        <path fill="#CD7967" fill-rule="nonzero" d="M26.836 29.237c.142.29.068.64-.178.849-.142-.308-.015-.545.178-.85z"/>
        <path fill="#AD685A" fill-rule="nonzero" d="M27.263 26.7l.18.178-.456.353c-.085-.312.085-.43.276-.531z"/>
        <path fill="#BC161B" fill-rule="nonzero" d="M24.526 41.598c-.41-.367-.04-.75.012-1.102.111-.75.316-1.484.479-2.226.04-.184.022-.447.315-.392.272.052.216.297.177.485-.213 1.017-.435 2.033-.653 3.05l-.33.185z"/>
        <path fill="#232323" fill-rule="nonzero" d="M19.558 18.35v-1.366c0-.166-.015-.367.219-.388.233-.021.287.141.287.328.003.967.003 1.935 0 2.902 0 .182-.056.36-.276.353-.22-.008-.231-.21-.233-.383-.004-.479.003-.963.003-1.446z"/>
        <path fill="#212121" fill-rule="nonzero" d="M12.545 18.409v-1.537c0-.158.073-.287.243-.287a.249.249 0 0 1 .254.277c.005.996.009 1.991 0 2.987 0 .181-.068.345-.293.32-.18-.017-.211-.17-.213-.314-.005-.483 0-.967 0-1.45l.009.004z"/>
        <path fill="#282929" fill-rule="nonzero" d="M21.8 18.391v1.452c0 .132.013.304-.18.33-.219.03-.318-.119-.32-.302-.009-.996-.005-1.991 0-2.987a.273.273 0 0 1 .25-.294c.247-.02.252.18.254.349 0 .485-.004.968-.004 1.452z"/>
        <path fill="#2A2B2B" fill-rule="nonzero" d="M14.785 18.409c0 .455.006.91 0 1.366 0 .158.04.383-.198.398-.271.022-.312-.192-.313-.403-.004-.939-.004-1.878 0-2.818 0-.182.065-.356.275-.361.241-.007.235.2.236.366.005.484 0 .967 0 1.452z"/>
        <path fill="#313131" fill-rule="nonzero" d="M25.323 18.454c0 .478.008.964 0 1.446a.265.265 0 0 1-.258.287c-.192.005-.228-.147-.229-.287-.007-.994-.009-1.988-.006-2.982 0-.133.01-.3.201-.316.225-.018.298.152.302.324.015.51.005 1.021.005 1.53l-.015-.002z"/>
        <path fill="#353535" fill-rule="nonzero" d="M23.555 18.428c0 .454.006.909 0 1.362 0 .16.008.37-.224.383-.232.012-.281-.18-.287-.346-.01-.965-.01-1.93 0-2.896 0-.164.057-.36.287-.341.23.018.221.225.223.383.008.492.002.976 0 1.455z"/>
        <path fill="#2E2E2E" fill-rule="nonzero" d="M11.31 18.415c0 .483.01.967-.004 1.45-.006.179-.096.336-.316.31-.191-.02-.187-.19-.191-.326-.007-.967-.007-1.933 0-2.9 0-.167 0-.376.247-.358.204.014.264.191.266.374.004.484 0 .967 0 1.451h-.001z"/>
        <path fill="#2E2F2F" fill-rule="nonzero" d="M17.813 18.336v-1.45c0-.142.037-.295.223-.292a.258.258 0 0 1 .27.27c0 1.021 0 2.043-.008 3.061a.249.249 0 0 1-.28.252c-.192-.013-.204-.177-.206-.311-.005-.51 0-1.021.001-1.53z"/>
        <path fill="#373737" fill-rule="nonzero" d="M16.548 18.409c0 .478.005.965-.006 1.448 0 .132-.018.3-.205.322-.234.026-.294-.16-.296-.324-.014-.965-.014-1.93-.007-2.896 0-.164.035-.366.263-.367.228-.001.244.204.248.368.01.483.004.966.003 1.449z"/>
        <path fill="#232020" fill-rule="nonzero" d="M22.45 30.976c.339-.17.167-.611.513-.689a.204.204 0 0 1 .246.18c.044.315-.059.632-.279.861a3.636 3.636 0 0 1-2.577 1.14c-1.749.264-3.53.219-5.262-.133a2.775 2.775 0 0 1-2.147-1.366c-.102-.21-.23-.545.095-.66.327-.114.293.233.374.428.252.487.716.83 1.256.93 1.74.43 3.546.542 5.327.327.26-.011.437-.095.416-.404-.04-.585-.06-1.208.629-1.424.687-.216.99.399 1.41.81z"/>
        <path fill="#242120" fill-rule="nonzero" d="M20.516 27.484a2.499 2.499 0 0 1 1.914-2.152 2.85 2.85 0 0 1 2.2 1.78c.035.1.028.21-.02.306-.12.152-.277.038-.364-.05-1.223-1.238-2.453-1.485-3.73.116z"/>
        <path fill="#292422" fill-rule="nonzero" d="M18.067 30.622a2.821 2.821 0 0 1-1.985-.91c-.117-.128-.208-.294-.032-.44.132-.11.278-.033.383.063 1.052.956 2.088 1.06 3.123-.024a.237.237 0 0 1 .373 0c.124.135.033.277-.046.382a2.392 2.392 0 0 1-1.816.93z"/>
        <path fill="#3A2D2A" fill-rule="nonzero" d="M12.515 28.162a2.284 2.284 0 0 1 2.03-.293 3.827 3.827 0 0 1-2.03.293z"/>
        <path fill="#3D2E2B" fill-rule="nonzero" d="M23.382 28.104a2.467 2.467 0 0 1-1.547-.184 1.387 1.387 0 0 1 1.547.184z"/>
        <path fill="#392C29" fill-rule="nonzero" d="M24.703 28.422c.16-.059.191-.083.21-.075.35.166.678.357.752.78.006.032-.133.139-.18.125-.418-.114-.546-.488-.782-.83z"/>
        <path fill="#2C2524" fill-rule="nonzero" d="M11.324 28.264a.987.987 0 0 1-.665.976c-.027.013-.165-.096-.159-.132.072-.435.445-.577.824-.844z"/>
        <path fill="#322926" fill-rule="nonzero" d="M10.824 27.538l.13.126c-.076.073-.142.182-.233.208-.09.026-.232-.025-.197-.181.03-.13.146-.147.3-.153z"/>
        <path fill="#D81850" fill-rule="nonzero" d="M20.913 31.346c.02-.327-.007-.684.375-.67.32.028.578.276.618.595.02.383-.414.373-.685.449-.42.117-.205-.277-.308-.374z"/>
        <path fill="#242120" fill-rule="nonzero" d="M11.535 27.484a2.499 2.499 0 0 1 1.914-2.152 2.85 2.85 0 0 1 2.2 1.78c.035.1.028.21-.02.306-.12.152-.277.038-.364-.05-1.22-1.238-2.454-1.485-3.73.116z"/>
        <g fill="#000">
            <use xlink:href="#a"/>
            <use xlink:href="#a"/>
        </g>
        <g fill="#000">
            <use xlink:href="#b"/>
            <use xlink:href="#b"/>
        </g>
    </g>
</svg>
