<svg xmlns="http://www.w3.org/2000/svg" xmlns:xlink="http://www.w3.org/1999/xlink" width="142" height="37" viewBox="0 0 142 37">
    <defs>
        <path id="a" d="M5.838 5.644c-.679 0-1.266.118-1.763.355-.497.236-.908.56-1.231.97-.324.41-.564.9-.722 1.467a6.97 6.97 0 0 0-.237 1.87c0 .678.08 1.302.237 1.87a4.13 4.13 0 0 0 .734 1.479c.331.418.75.745 1.254.982.505.237 1.112.355 1.822.355a6.93 6.93 0 0 0 2.864-.639l.355 1.136a7.258 7.258 0 0 1-1.538.568c-.52.126-1.128.19-1.823.19-.93 0-1.735-.15-2.414-.45a4.7 4.7 0 0 1-1.704-1.255A5.22 5.22 0 0 1 .655 12.65a8.01 8.01 0 0 1-.332-2.343c0-.836.11-1.617.332-2.343.22-.726.56-1.353 1.017-1.881A4.72 4.72 0 0 1 3.4 4.838c.694-.3 1.507-.45 2.438-.45.63 0 1.203.063 1.716.19.512.126 1.005.3 1.479.52-.048.19-.107.383-.178.58-.07.197-.13.383-.177.556a8.259 8.259 0 0 0-1.314-.426 6.609 6.609 0 0 0-1.526-.165zm12.709 4.591H15.92c-1.136 0-1.992.229-2.568.686-.576.458-.864 1.113-.864 1.965 0 .71.213 1.246.64 1.609.425.363.954.544 1.585.544.584 0 1.112-.106 1.585-.32a3.805 3.805 0 0 0 1.207-.84c.332-.346.588-.74.77-1.183.181-.441.272-.883.272-1.325v-1.136zm0-1.751c0-1.026-.26-1.756-.781-2.19-.52-.433-1.215-.65-2.083-.65-.726 0-1.38.079-1.964.236a9.788 9.788 0 0 0-1.586.568 5.59 5.59 0 0 0-.201-.556 6.859 6.859 0 0 1-.201-.532c.426-.253.986-.478 1.68-.675.694-.197 1.467-.296 2.32-.296 1.467 0 2.555.367 3.265 1.1.71.735 1.065 1.74 1.065 3.018v7.526h-1.183L18.5 13.81a6.98 6.98 0 0 1-.639.934 4.184 4.184 0 0 1-.84.781 3.823 3.823 0 0 1-1.112.533c-.418.126-.911.19-1.48.19-.488 0-.942-.072-1.36-.214a3.003 3.003 0 0 1-1.846-1.692c-.182-.418-.272-.903-.272-1.455 0-1.278.438-2.233 1.313-2.864.876-.631 2.103-.947 3.68-.947h2.604v-.591zm7.123 4.473c0 .678.107 1.187.32 1.526.213.34.635.509 1.266.509a3.858 3.858 0 0 0 1.799-.402c.063.205.126.386.19.544.062.158.125.34.188.544a3.757 3.757 0 0 1-1.017.415c-.395.102-.868.153-1.42.153-.963 0-1.68-.26-2.154-.78-.473-.521-.71-1.35-.71-2.486V5.857h-1.846V4.602h1.846l.473-3.313h1.065v3.313h3.598v1.255H25.67v7.1zm7.053-1.941c.095 1.262.485 2.24 1.172 2.935.686.694 1.668 1.041 2.946 1.041.52 0 1.045-.051 1.574-.154a6.287 6.287 0 0 0 1.455-.461l.355 1.136c-.489.22-1.025.398-1.609.532a8.562 8.562 0 0 1-1.917.201c-1.846 0-3.222-.536-4.13-1.609-.907-1.073-1.36-2.517-1.36-4.331 0-.836.102-1.617.307-2.343a5.33 5.33 0 0 1 .935-1.881c.418-.53.95-.943 1.597-1.243.647-.3 1.42-.45 2.32-.45 1.467 0 2.58.418 3.337 1.255.757.836 1.136 1.988 1.136 3.455 0 .363-.02.702-.06 1.018-.039.315-.098.615-.177.899h-7.88zm3.645-5.443c-.616 0-1.148.106-1.598.32-.45.212-.82.512-1.112.899a4.116 4.116 0 0 0-.663 1.372 7.798 7.798 0 0 0-.272 1.74h6.603c.032-.08.047-.221.047-.426v-.379c0-1.136-.228-2.008-.686-2.615-.457-.608-1.23-.911-2.32-.911zm9.064 1.278c.174-.284.37-.572.592-.864.22-.292.47-.556.745-.793a3.72 3.72 0 0 1 .923-.58c.34-.15.706-.225 1.1-.225.411 0 .723.036.936.107.213.07.366.13.461.177a7.678 7.678 0 0 0-.19.793c-.047.26-.11.525-.189.793-.33-.237-.765-.355-1.301-.355-.679 0-1.286.19-1.823.568-.536.379-.97.907-1.301 1.586v7.975h-1.586V4.603h1.23l.403 2.248z"/>
        <path id="b" d="M53.132 16.033h-1.586V4.603h1.278l.355 2.011c.158-.252.359-.509.603-.77.245-.26.521-.496.829-.71.308-.212.655-.39 1.041-.532a3.646 3.646 0 0 1 1.266-.213c.758 0 1.377.225 1.858.675.481.45.832 1.053 1.053 1.81a6.198 6.198 0 0 1 1.633-1.74 3.753 3.753 0 0 1 2.272-.745c1.105 0 1.913.375 2.426 1.124.513.75.77 1.74.77 2.97v7.55h-1.563v-7.55c0-.804-.15-1.459-.45-1.964-.3-.505-.82-.757-1.561-.757-.726 0-1.373.237-1.941.71a5.872 5.872 0 0 0-1.373 1.633v7.928H58.48v-7.55c0-.804-.153-1.459-.461-1.964-.308-.505-.817-.757-1.527-.757-.741 0-1.4.22-1.976.663a5.315 5.315 0 0 0-1.384 1.562v8.046zm18.105-5.727c0 .678.07 1.306.213 1.882.142.575.366 1.072.674 1.49.308.419.694.746 1.16.983.465.236 1.03.355 1.692.355.663 0 1.23-.119 1.704-.355a3.22 3.22 0 0 0 1.171-.982c.308-.419.533-.916.675-1.492a7.85 7.85 0 0 0 .213-1.881c0-.663-.071-1.282-.213-1.858a4.05 4.05 0 0 0-.674-1.479 3.267 3.267 0 0 0-1.172-.97c-.473-.237-1.041-.355-1.704-.355s-1.227.118-1.692.355c-.466.236-.852.56-1.16.97a4.05 4.05 0 0 0-.674 1.48 7.744 7.744 0 0 0-.213 1.857zm-1.562 0c0-.836.106-1.613.32-2.331a5.395 5.395 0 0 1 .97-1.882A4.402 4.402 0 0 1 72.62 4.84c.67-.3 1.456-.45 2.355-.45.915 0 1.704.15 2.367.45a4.53 4.53 0 0 1 1.656 1.254c.442.537.77 1.164.983 1.882.213.718.319 1.495.319 2.331 0 .836-.106 1.617-.32 2.343A5.276 5.276 0 0 1 79 14.542a4.53 4.53 0 0 1-1.656 1.255c-.663.3-1.452.45-2.367.45-.9 0-1.684-.15-2.355-.45a4.402 4.402 0 0 1-1.656-1.255 5.383 5.383 0 0 1-.97-1.893 8.285 8.285 0 0 1-.32-2.343zm15.075 5.727h-1.585V4.603h1.254l.355 1.987a6.75 6.75 0 0 1 .71-.745 5.92 5.92 0 0 1 2.13-1.243 4.314 4.314 0 0 1 1.373-.213c1.215 0 2.161.39 2.84 1.172.678.78 1.017 1.873 1.017 3.278v7.194h-1.562V8.84c0-.947-.228-1.692-.686-2.237-.458-.544-1.089-.816-1.893-.816-.82 0-1.574.209-2.26.627a5.708 5.708 0 0 0-1.693 1.55v8.07zm21.206 0h-1.87a245.742 245.742 0 0 0-2.39-3.029c-.3-.379-.596-.75-.888-1.112l-.78-.97a75.686 75.686 0 0 0-.569-.699c-.15-.181-.225-.28-.225-.296v-.591l4.568-4.734h1.87l-4.852 4.97 5.136 6.461zm-7.905 0h-1.586V.011h1.586v16.022z"/>
    </defs>
    <g fill="none" fill-rule="evenodd">
        <circle cx="14.363" cy="21.972" r="14.363" fill="#F26A36" fill-rule="nonzero"/>
        <path fill="#F26A36" fill-rule="nonzero" d="M.442 20.182a13.523 13.523 0 0 1 3.47-7.579 16.37 16.37 0 0 1 3.63-2.952c.029-.099.081-.115.158-.049.138.249.19.536.148.817-.029 2.35.026 4.698-.037 7.048-.03 1.122.046 2.254.034 3.38-.009.79-.104.856-.854.716s-1.323.431-1.23 1.293a4.748 4.748 0 0 0 1.179 2.737A6.586 6.586 0 0 0 9 27.277c.084.042.165.091.24.147.75.529.745.909-.07 1.308-1.31.64-2.573 1.367-3.872 2.027-.248.126-.62.166-.62.576.101.316.536.455.454.864a.196.196 0 0 1-.276-.028A10.054 10.054 0 0 1 2.39 29.28a13.066 13.066 0 0 1-1.947-5.435c-.124-.237.02-.508-.113-.74V21.07c.139-.284-.018-.605.112-.888zM22.206 10.465a13.941 13.941 0 0 1 6.027 10.217c.012.069.028.137.048.204a9.282 9.282 0 0 1 0 2.251 14.846 14.846 0 0 1-2.313 6.47c-.204.305-.454.579-.682.867-.07.12-.139.25-.307.12-.115-.408.258-.596.403-.887.13-.26.384-.455.394-.776-.223-.305-.584-.285-.891-.351-1.079-.237-2.142-.527-3.215-.785-.224-.054-.523-.088-.58-.337-.065-.284.196-.457.406-.604a6.262 6.262 0 0 0 2.097-2.421c.302-.614.43-1.299.372-1.98a.921.921 0 0 0-1.145-.921c-.734.09-.808.049-.813-.691-.018-2.303-.006-4.606-.007-6.91 0-.916-.007-1.832.004-2.748a.868.868 0 0 1 .202-.718z"/>
        <path fill="#1F1E1E" fill-rule="nonzero" d="M22.205 10.465v11.04c.166.079.274-.045.394-.088a1.08 1.08 0 0 1 1.578 1.015c.101 1.806-.83 3.116-2.114 4.236-.293.256-.62.474-1.026.777 1.627.395 3.139.759 4.647 1.134.231.058.657.041.32.492-.287.21-.584.087-.873.016-1.222-.302-2.438-.631-3.677-.856-.261-.1-.532-.17-.809-.211a6.192 6.192 0 0 0-2.824 3.278c-.441 1.135-.723 2.326-1.069 3.494a1.781 1.781 0 0 1-.297.71.481.481 0 0 1-.611.11c-.237-.453.128-.834.148-1.255.126-.444.237-.892.432-1.402a36.887 36.887 0 0 0-3.997 2.142 1.601 1.601 0 0 1-.972.338.49.49 0 0 1-.277-.119c-.068-.405.278-.514.515-.664a31.356 31.356 0 0 1 4.315-2.358c.34-.147.71-.256.847-.82a32.408 32.408 0 0 0-7.384 3.332c-.278.019-.51-.035-.583-.354.408-.486.936-.859 1.53-1.081a32.86 32.86 0 0 1 5.803-2.551 2.389 2.389 0 0 0 1.643-1.342c-2.459 1.105-4.813.717-7.096-.5a1.165 1.165 0 0 0-1.245.036c-1.404.763-2.84 1.465-4.246 2.225a1.21 1.21 0 0 1-.73.226c-.434-.24-.24-.395.069-.552 1.518-.793 3.034-1.59 4.548-2.392.206-.108.41-.22.622-.335a2.389 2.389 0 0 0-1.003-.789 6.044 6.044 0 0 1-3.17-4.26c-.245-1.45.534-2.103 2.008-1.57V9.661C7.552 6.5 7.6 3.34 7.594.18c0-.08.057-.124.094-.181 1.009.315 1.986.725 2.919 1.224 1.903.828 3.793 1.69 5.673 2.569.329.161.713.163 1.043.004 1.348-.559 2.699-1.113 4.042-1.684.214-.079.438-.126.666-.14.107.735.137 1.48.09 2.223-.028.723-.005 1.447.067 2.166l-.007.346a20.887 20.887 0 0 0 0 3.517l.024.24z"/>
        <path fill="#F16C3A" fill-rule="nonzero" d="M11.197 35.274l.307.08c1.263-.08 2.52.039 3.778.063.2-.04.407-.004.583.1a.846.846 0 0 0 .538-.093 2.41 2.41 0 0 1 1.105-.359c.87-.24 1.724-.529 2.56-.867.12-.07.24-.135.362-.2a12.334 12.334 0 0 0 1.847-1.142c.214-.158.405-.416.738-.304.132.169 0 .237-.12.31a12.408 12.408 0 0 1-4.727 2.513 7.28 7.28 0 0 1-2.325.463c-.426.188-.892-.033-1.32.131h-.464c-.382-.147-.793.026-1.176-.108A13.45 13.45 0 0 1 6.3 33.415a1.197 1.197 0 0 1-.178-.19c-.106-.115-.327-.201-.107-.403.045-.014.1-.035.135-.015a26.67 26.67 0 0 1 2.792 1.647c.131.145.313.233.508.245a2.455 2.455 0 0 1 1.748.575z"/>
        <path fill="#F9F8F7" fill-rule="nonzero" d="M7.685 0l-.037 8.252c0 .47-.02.939-.03 1.408l-.04-.01h-.043L7.515.499c.002-.184-.038-.385.17-.499z"/>
        <path fill="#F47746" fill-rule="nonzero" d="M22.9 32.867l.132-.287a5.049 5.049 0 0 1 1.972-1.973l.286-.13a8.316 8.316 0 0 1-2.39 2.39z"/>
        <path fill="#F9F8F7" fill-rule="nonzero" d="M22.191 6.362c-.149-1.183-.023-2.375-.066-3.562.034-.28.003-.562-.09-.828.226.14.163.366.163.566.001 1.275-.004 2.548-.007 3.824z"/>
        <path fill="#F37241" fill-rule="nonzero" d="M5.966 32.871l.157.356a3.216 3.216 0 0 1-1.27-1.058l.267.007c.574-.118.767.217.846.695z"/>
        <path fill="#F9F8F7" fill-rule="nonzero" d="M22.187 10.225c-.1-1.17-.1-2.347 0-3.517v3.517z"/>
        <path fill="#F5907B" fill-rule="nonzero" d="M5.966 32.871a1.454 1.454 0 0 0-.846-.696l-.573-.715 5.337-2.84a.579.579 0 0 1 .648.014 7.855 7.855 0 0 0 7.528.616c.036-.015.088 0 .14.007a3.007 3.007 0 0 1-2.025 1.794 29.205 29.205 0 0 0-7.228 3.405 9.75 9.75 0 0 1-2.321-1.22c-.208-.139-.384-.348-.66-.365z"/>
        <path fill="#EC411C" fill-rule="nonzero" d="M25 30.607l-1.972 1.973a21.847 21.847 0 0 1-2.533 1.566c-.223-.548.097-1.046.15-1.568.03-.292.124-.578.14-.874-.191.868-.402 1.725-.565 2.596a11.26 11.26 0 0 1-3.817 1.13c.395-1.366.722-2.755 1.199-4.091a6.21 6.21 0 0 1 3.04-3.507c.168.231-.005.4-.117.564a12.262 12.262 0 0 0-1.853 4.812 14.646 14.646 0 0 1 1.625-4.339c.247-.401.45-.917 1.09-.822 1.569.206 3.065.74 4.616 1.025L25 30.607z"/>
        <path fill="#FFF" fill-rule="nonzero" d="M8.022 8.905c0-2.588.018-5.177-.012-7.764-.008-.609.134-.665.655-.425a1945.97 1945.97 0 0 0 12.582 5.725.71.71 0 0 1 .528.754c-.022 3.2-.022 6.4 0 9.6 0 .48-.15.572-.593.57-4.188-.015-8.376-.015-12.564 0-.51 0-.61-.153-.605-.63.022-2.607.01-5.218.01-7.83z"/>
        <path fill="#F5907B" fill-rule="nonzero" d="M14.906 17.798h6.275c.27 0 .587-.079.575.384-.054 2.042.164 4.095-.183 6.122-.501 2.93-2.465 4.394-5.207 5.032a7.262 7.262 0 0 1-5.933-1.289 5.566 5.566 0 0 1-2.345-4.597c-.078-1.69-.02-3.384-.061-5.075-.011-.48.151-.592.603-.587 2.093.022 4.184.01 6.276.01z"/>
        <path fill="#EA411C" fill-rule="nonzero" d="M11.198 35.274L9.453 34.7a28.27 28.27 0 0 1 6.701-3.223c.285-.105.576-.193.915-.306.077.503-.217.99-.698 1.156a30.698 30.698 0 0 0-4.643 2.51c-.189.124-.435.191-.53.436z"/>
        <path fill="#D4D4D4" fill-rule="nonzero" d="M21.76 6.189l-4.38-1.981c1.42-.581 2.693-1.097 3.96-1.619.283-.116.43-.1.425.267-.015 1.075-.005 2.15-.005 3.333z"/>
        <path fill="#EB411C" fill-rule="nonzero" d="M15.293 35.584a16.736 16.736 0 0 1-3.787-.228c.468-.146.904-.379 1.285-.687a37.509 37.509 0 0 1 3.896-2.024l-.53 1.651c-.2.488-.624.828-.864 1.288z"/>
        <path fill="#EF8D79" fill-rule="nonzero" d="M8.531 26.735a5.413 5.413 0 0 1-2.519-3.838c-.049-.41-.046-.885.43-1.095.474-.21.783.086 1.172.524-.474-.097-.84-.402-1.171-.044-.126.137-.286.304-.134.488.151.185.247.026.377-.099.325-.31.494.051.675.223.22.209.482.495.18.776-.67.62-.285 1.138.113 1.641.417.386.72.879.877 1.424z"/>
        <path fill="#F08D79" fill-rule="nonzero" d="M22.483 22.016a.744.744 0 0 1 .95-.18c.346.194.346.538.336.867-.057 1.8-1.098 2.986-2.545 4.085.122-.517.406-.982.81-1.325.673-.729.683-.987.158-1.834-.199-.32.048-.535.237-.726.19-.19.351-.514.685-.237.123.103.206.31.372.1.148-.186 0-.354-.125-.49-.207-.22-.474-.157-.725-.112-.154.051-.187-.014-.153-.148z"/>
        <path fill="#BB151C" fill-rule="nonzero" d="M21.387 28.047c-.582.13-.79.643-1.037 1.079a12.64 12.64 0 0 0-1.404 3.883 1.91 1.91 0 0 1-.088.339c-.064.158-.05.435-.335.328-.195-.073-.13-.275-.093-.433a12.686 12.686 0 0 1 2.158-5.213.552.552 0 0 0 .055-.201l.744.218z"/>
        <path fill="#BB191B" fill-rule="nonzero" d="M15.293 35.584c-.151-.104-.142-.221-.026-.344l.889-.946-.29 1.223-.573.067z"/>
        <path fill="#CD7967" fill-rule="nonzero" d="M22.128 24.108a.582.582 0 0 1-.147.7c-.117-.254-.012-.45.147-.7z"/>
        <path fill="#AD685A" fill-rule="nonzero" d="M22.48 22.016l.148.146-.376.291c-.07-.257.07-.354.228-.437z"/>
        <path fill="#BC161B" fill-rule="nonzero" d="M20.223 34.3c-.338-.303-.033-.618.01-.909.092-.617.26-1.223.395-1.835.034-.152.018-.369.26-.323.224.043.178.244.145.4-.175.838-.358 1.676-.538 2.514l-.272.153z"/>
        <path fill="#232323" fill-rule="nonzero" d="M16.126 15.13v-1.126c0-.136-.011-.303.181-.32.193-.017.237.117.237.27.002.798.002 1.596 0 2.394 0 .15-.046.297-.227.29-.182-.006-.191-.173-.193-.315-.003-.395.002-.794.002-1.192z"/>
        <path fill="#212121" fill-rule="nonzero" d="M10.344 15.179v-1.267c0-.13.06-.237.2-.237a.205.205 0 0 1 .21.23c.004.82.007 1.64 0 2.462 0 .15-.056.284-.242.264-.148-.015-.174-.14-.175-.26-.004-.398 0-.797 0-1.195l.007.003z"/>
        <path fill="#282929" fill-rule="nonzero" d="M17.976 15.165v1.197c0 .108.01.25-.15.272-.18.024-.261-.098-.263-.249-.007-.821-.004-1.642 0-2.463a.225.225 0 0 1 .207-.243c.203-.015.207.15.209.288 0 .4-.003.799-.003 1.198z"/>
        <path fill="#2A2B2B" fill-rule="nonzero" d="M12.191 15.179c0 .376.005.751 0 1.127 0 .13.034.315-.163.328-.224.018-.258-.158-.259-.332-.003-.775-.003-1.549 0-2.324 0-.15.054-.294.228-.298.198-.005.193.166.194.302.004.4 0 .798 0 1.197z"/>
        <path fill="#313131" fill-rule="nonzero" d="M20.88 15.216c0 .395.007.795 0 1.193a.219.219 0 0 1-.213.237c-.157.003-.187-.122-.188-.237-.006-.82-.008-1.64-.005-2.46 0-.109.008-.247.166-.26.185-.014.245.126.249.267.012.421.004.843.004 1.262l-.013-.002z"/>
        <path fill="#353535" fill-rule="nonzero" d="M19.422 15.195c0 .375.005.75 0 1.123 0 .133.007.305-.184.316-.191.01-.232-.149-.237-.285-.009-.796-.009-1.592 0-2.388 0-.136.048-.297.237-.282.19.015.182.186.184.316.006.406.001.805 0 1.2z"/>
        <path fill="#2E2E2E" fill-rule="nonzero" d="M9.326 15.185c0 .398.008.796-.004 1.195-.004.147-.079.277-.26.256-.158-.017-.154-.158-.158-.269-.005-.797-.005-1.595 0-2.392 0-.137 0-.31.204-.295.169.012.217.158.219.309.004.399 0 .797 0 1.196z"/>
        <path fill="#2E2F2F" fill-rule="nonzero" d="M14.688 15.12v-1.196c0-.118.03-.244.184-.242a.213.213 0 0 1 .222.223c0 .842 0 1.685-.006 2.524a.205.205 0 0 1-.232.208c-.157-.01-.167-.146-.17-.257-.003-.42.002-.841.002-1.26z"/>
        <path fill="#373737" fill-rule="nonzero" d="M13.645 15.179c0 .394.004.796-.005 1.194 0 .11-.015.248-.169.265-.193.023-.243-.131-.244-.266a114.74 114.74 0 0 1-.006-2.388c0-.136.03-.302.217-.303.188 0 .201.169.204.304.008.398.003.796.003 1.194z"/>
        <path fill="#232020" fill-rule="nonzero" d="M18.512 25.542c.279-.14.137-.504.422-.568a.168.168 0 0 1 .204.148.856.856 0 0 1-.23.71 2.998 2.998 0 0 1-2.126.94 12.48 12.48 0 0 1-4.339-.11 2.288 2.288 0 0 1-1.77-1.126c-.084-.174-.19-.45.079-.544.269-.095.241.192.307.353.209.401.591.684 1.036.766 1.436.355 2.924.447 4.393.27.214-.01.36-.079.343-.333-.032-.482-.049-.996.518-1.174.567-.179.817.329 1.163.668z"/>
        <path fill="#242120" fill-rule="nonzero" d="M16.917 22.662a2.06 2.06 0 0 1 1.578-1.774 2.35 2.35 0 0 1 1.814 1.467.329.329 0 0 1-.016.253c-.1.125-.23.032-.301-.041-1.008-1.02-2.023-1.225-3.075.095z"/>
        <path fill="#292422" fill-rule="nonzero" d="M14.897 25.25a2.326 2.326 0 0 1-1.637-.75c-.096-.106-.17-.243-.026-.364.11-.09.23-.027.316.052.868.789 1.721.875 2.575-.02a.196.196 0 0 1 .308 0c.102.112.027.23-.038.316-.36.466-.91.747-1.498.766z"/>
        <path fill="#3A2D2A" fill-rule="nonzero" d="M10.32 23.22a1.883 1.883 0 0 1 1.673-.24 3.156 3.156 0 0 1-1.674.24z"/>
        <path fill="#3D2E2B" fill-rule="nonzero" d="M19.28 23.174c-.43.088-.878.035-1.276-.152a1.144 1.144 0 0 1 1.276.152z"/>
        <path fill="#392C29" fill-rule="nonzero" d="M20.37 23.436c.13-.049.157-.07.173-.062.288.136.558.294.62.643.004.027-.11.114-.15.103-.343-.094-.449-.402-.644-.684z"/>
        <path fill="#2C2524" fill-rule="nonzero" d="M9.337 23.305a.814.814 0 0 1-.548.805c-.022.011-.136-.079-.13-.109.058-.358.366-.476.678-.696z"/>
        <path fill="#322926" fill-rule="nonzero" d="M8.925 22.707l.108.104c-.063.06-.118.15-.193.17-.075.022-.191-.02-.162-.148.024-.107.12-.12.247-.126z"/>
        <path fill="#D81850" fill-rule="nonzero" d="M17.244 25.846c.017-.269-.006-.564.31-.552a.564.564 0 0 1 .51.49c.016.316-.342.309-.566.37-.347.098-.17-.227-.254-.308z"/>
        <path fill="#242120" fill-rule="nonzero" d="M9.512 22.662a2.06 2.06 0 0 1 1.577-1.774 2.35 2.35 0 0 1 1.815 1.467.329.329 0 0 1-.017.253c-.1.125-.228.032-.3-.041-1.006-1.02-2.024-1.225-3.075.095z"/>
        <g fill="#FFF">
            <g transform="translate(34.878 11.411)">
                <use xlink:href="#a"/>
                <use xlink:href="#a"/>
            </g>
            <g transform="translate(34.878 11.411)">
                <use xlink:href="#b"/>
                <use xlink:href="#b"/>
            </g>
        </g>
    </g>
</svg>
