<svg xmlns="http://www.w3.org/2000/svg" width="40" height="39" viewBox="0 0 40 39">
    <g fill="#A7A7A7" fill-rule="nonzero">
        <path d="M33.35 12.543H.562c-.31 0-.562.25-.562.56v15.74c0 .31.25.561.56.562h22.298a.562.562 0 0 0 0-1.124H1.124V13.667h31.664v1.405c0 .31.25.562.56.562h.002c.31 0 .561-.25.562-.56v-1.969c0-.31-.251-.562-.561-.562zM29.538 9.933L3.308 4.032a.564.564 0 0 0-.672.426L1.325 10.36a.562.562 0 0 0 1.097.244l1.19-5.352 25.68 5.778a.562.562 0 0 0 .247-1.096zM26.353 6.682L10.615.124a.564.564 0 0 0-.721.268L8.582 3.015a.564.564 0 1 0 1.009.504v.001l1.076-2.153L25.92 7.72a.563.563 0 0 0 .434-1.04z"/>
        <path d="M26.75 15.166h-5.204a.562.562 0 0 0 0 1.124h5.205a.562.562 0 0 0 0-1.124zM16.3 15.203a5.77 5.77 0 1 0 0 11.541 5.77 5.77 0 0 0 0-11.541zm0 10.492a4.721 4.721 0 1 1 0-9.443 4.721 4.721 0 0 1 0 9.443zM32.038 17.04c-3.475 0-7.213.82-7.213 2.622V35.4c0 1.802 3.738 2.623 7.213 2.623 3.476 0 7.213-.82 7.213-2.623V19.662c0-1.802-3.737-2.623-7.213-2.623zm5.902 18.35c-.1.364-2.066 1.322-5.902 1.322-3.836 0-5.803-.958-5.902-1.312v-1.03c1.396.702 3.7 1.03 5.902 1.03 2.201 0 4.507-.331 5.902-1.031v1.021zm0-2.623c-.1.364-2.066 1.322-5.902 1.322-3.836 0-5.803-.958-5.902-1.312v-1.03c1.396.702 3.7 1.03 5.902 1.03 2.201 0 4.507-.331 5.902-1.031v1.021zm0-2.623c-.1.364-2.066 1.322-5.902 1.322-3.836 0-5.803-.958-5.902-1.312v-1.03c1.396.702 3.7 1.03 5.902 1.03 2.201 0 4.507-.331 5.902-1.031v1.021zm0-2.623c-.1.364-2.066 1.322-5.902 1.322-3.836 0-5.803-.958-5.902-1.312v-1.03c1.396.702 3.7 1.03 5.902 1.03 2.201 0 4.507-.331 5.902-1.031v1.021zm0-2.623c-.1.364-2.066 1.322-5.902 1.322-3.836 0-5.803-.958-5.902-1.312v-1.03c1.396.699 3.7 1.03 5.902 1.03 2.201 0 4.507-.331 5.902-1.031v1.021zm0-2.623c-.1.364-2.066 1.322-5.902 1.322-3.836 0-5.803-.958-5.902-1.312v-1.03c1.396.699 3.7 1.03 5.902 1.03 2.201 0 4.507-.331 5.902-1.031v1.021zm-5.902-1.301c-3.83 0-5.796-.955-5.902-1.3v-.004c.106-.365 2.072-1.32 5.902-1.32 3.803 0 5.77.941 5.902 1.312-.131.371-2.099 1.312-5.902 1.312z"/>
        <path d="M11.054 25.657H6.097l-2.35-2.57v-4.263l2.595-2.534h4.712a.562.562 0 0 0 0-1.124h-4.94a.563.563 0 0 0-.393.159l-2.93 2.857a.704.704 0 0 0-.169.46v4.663c0 .14.053.275.147.379l2.665 2.914a.562.562 0 0 0 .415.183h5.205a.562.562 0 0 0 0-1.124zM16.628 20.318h-.656c-.204 0-.328-.114-.328-.164s.124-.164.328-.164h1.64a.656.656 0 0 0 0-1.311h-.656a.656.656 0 0 0-1.312 0v.029a1.527 1.527 0 0 0-1.311 1.443c.047.86.78 1.52 1.64 1.478h.655c.204 0 .328.115.328.164 0 .05-.124.164-.328.164h-1.64a.656.656 0 0 0 0 1.312h.656a.656.656 0 0 0 1.312 0v-.03a1.527 1.527 0 0 0 1.311-1.442 1.566 1.566 0 0 0-1.64-1.48z"/>
    </g>
</svg>
