<svg xmlns="http://www.w3.org/2000/svg" width="40" height="35" viewBox="0 0 40 35">
    <g fill="#A7A7A7" fill-rule="nonzero">
        <path d="M35.072 0H10.154C7.99 0 6.232 1.743 6.232 3.878L6.07 25.821H1.208c-.345 0-.608.304-.608.65v3.019c0 2.827 2.262 5.139 4.993 5.265v.037h20.984v-.041c.156.006.25.04.357.04h.015a5.275 5.275 0 0 0 5.244-5.302V10.297h6.335c.345 0 .608-.312.608-.656V4.1A4.093 4.093 0 0 0 35.072 0zM5.866 33.544H5.86c-2.22 0-4.013-1.835-4.013-4.055v-2.42h19.814v2.41a5.282 5.282 0 0 0 1.542 3.748c.106.106.216.16.329.317H5.866zm25.08-4.055c0 2.22-1.777 4.055-3.998 4.055h-.012a4.055 4.055 0 0 1-4.026-4.065V26.47a.646.646 0 0 0-.624-.65H7.32l.16-21.937c0-1.452 1.2-2.635 2.675-2.635h21.972c-.711.78-1.18 1.767-1.18 2.869v25.372zM37.887 4.11v4.938h-5.695V4.116c0-1.562 1.3-2.868 2.861-2.868h.017a2.845 2.845 0 0 1 2.817 2.858v.005z"/>
        <path d="M15.254 15.36l3.218 2.2c.21.145.487.145.697 0l3.208-2.198c1.114-.76 1.937-2.35 1.937-3.698v-4.45a.61.61 0 0 0-.332-.561l-4.9-2.41a.613.613 0 0 0-.545 0l-4.89 2.403a.609.609 0 0 0-.332.56v4.458c0 1.348.825 2.937 1.94 3.697zm-.69-7.764l4.25-2.098 4.252 2.104v4.062c0 .94-.616 2.136-1.393 2.666l-2.865 1.96-2.854-1.96c-.778-.53-1.39-1.726-1.39-2.666V7.596z"/>
        <path d="M17.76 12.606a.623.623 0 0 0 .441.187h.002a.625.625 0 0 0 .441-.184l2.483-2.484a.624.624 0 1 0-.883-.883l-2.04 2.039-.814-.823a.624.624 0 1 0-.887.879l1.256 1.27zM26.577 19.346H11.599a.624.624 0 0 0 0 1.248h14.978a.624.624 0 0 0 0-1.248zM26.577 22.232H11.599a.624.624 0 0 0 0 1.248h14.978a.624.624 0 0 0 0-1.248z"/>
    </g>
</svg>
