<svg xmlns="http://www.w3.org/2000/svg" width="37" height="37" viewBox="0 0 37 37">
    <path fill="#A7A7A7" fill-rule="nonzero" d="M35.882 15.79a2.64 2.64 0 0 0-1.635-1.125 2.66 2.66 0 0 0-.137-2.703 2.65 2.65 0 0 0-1.634-1.125 2.666 2.666 0 0 0-.137-2.704 2.638 2.638 0 0 0-1.635-1.126 2.66 2.66 0 0 0-.137-2.703 2.661 2.661 0 0 0-3.684-.749l-2.646 1.753a16.536 16.536 0 0 0-4.468-1.513 12.286 12.286 0 0 0-1.705-2.062L16.969.672a2.41 2.41 0 0 0-2.99-.277 2.398 2.398 0 0 0-.674 3.32l.084.13A16.678 16.678 0 0 0 .193 22.479C.994 28.31 4.88 33.337 10.332 35.596a16.568 16.568 0 0 0 6.375 1.263c3.498 0 6.845-1.071 9.682-3.098a16.627 16.627 0 0 0 6.004-7.911.573.573 0 1 0-1.078-.39 15.484 15.484 0 0 1-5.592 7.369 15.42 15.42 0 0 1-9.016 2.883c-1.684 0-3.328-.265-4.902-.79l4.663-3.087h.001v-.002l3.876-2.566c.348-.23.586-.582.67-.992.082-.409.001-.826-.23-1.174l-.05-.078.753-.498a2.553 2.553 0 0 1 1.819-.393 3.695 3.695 0 0 0 2.633-.57l6.244-4.135a15.56 15.56 0 0 1-.211 1.61.573.573 0 1 0 1.127.21c.159-.855.25-1.73.274-2.607l1.76-1.166a2.64 2.64 0 0 0 1.136-1.687 2.64 2.64 0 0 0-.388-1.997zM23.124 6.044l-1.751 1.16-.345-.929a12.265 12.265 0 0 0-.492-1.139c.889.225 1.754.529 2.588.908zM4.975 10.018a15.527 15.527 0 0 1 8.963-5.11 7.08 7.08 0 0 1 .357 4.288l-1.398 6.037a1.55 1.55 0 0 0-.826-.462 1.55 1.55 0 0 0-1.174.228L6.94 17.62l-5.71 3.781a15.521 15.521 0 0 1 3.746-11.384zm14.916 18.029a.415.415 0 0 1-.179.265l-3.403 2.254-6.318-9.422a.573.573 0 0 0-.952.638l6.314 9.417-4.86 3.217C5.667 32.305 2.21 27.845 1.38 22.655l5.715-3.773.658.982a.573.573 0 0 0 .952-.639l-.653-.974 3.478-2.296a.416.416 0 0 1 .578.118l7.722 11.661a.413.413 0 0 1 .061.313zm15.256-10.488c-.08.396-.31.737-.647.96L32.49 19.85l-.002.001-7.18 4.755a2.552 2.552 0 0 1-1.819.393 3.697 3.697 0 0 0-2.633.57l-.753.498-6.325-9.55 1.635-7.063A8.234 8.234 0 0 0 14.26 3.08a1.25 1.25 0 0 1 .352-1.73 1.257 1.257 0 0 1 1.56.144l1.094 1.06a11.198 11.198 0 0 1 2.687 4.12l.596 1.605.004.009.004.01a.566.566 0 0 0 .052.097c.175.265.53.338.794.163l6.113-4.048a1.514 1.514 0 0 1 2.095.426c.46.695.27 1.635-.425 2.095l-.531.352-1.184.784-.005.003-.018.014a.572.572 0 0 0 .656.939l1.184-.785c.337-.222.74-.3 1.136-.22.395.08.736.31.959.647.223.336.302.74.221 1.135-.08.396-.31.737-.647.96l-1.715 1.136a.573.573 0 1 0 .633.956l.266-.176.918-.608a1.514 1.514 0 0 1 2.096.425c.46.696.269 1.635-.426 2.096l-.857.567-.013.01-.845.559a.573.573 0 1 0 .633.955l.265-.175.919-.609a1.5 1.5 0 0 1 1.136-.22c.396.08.737.31.96.646.222.337.3.74.22 1.136z"/>
</svg>
