<svg xmlns="http://www.w3.org/2000/svg" width="29" height="37" viewBox="0 0 29 37">
    <g fill="#A7A7A7" fill-rule="nonzero">
        <path d="M28.544 7.41L14.787.08a.683.683 0 0 0-.65.004L.76 7.414a.685.685 0 0 0-.356.601v9.575a19.825 19.825 0 0 0 11.883 18.145l1.857.809a.684.684 0 0 0 .545 0l2.092-.903a19.786 19.786 0 0 0 12.124-18.24V8.014a.685.685 0 0 0-.362-.604zm-1.007 9.99a18.42 18.42 0 0 1-11.292 16.981l-.004.002-1.822.787-1.583-.69A18.454 18.454 0 0 1 1.775 17.59V8.42L14.47 1.464l13.067 6.963V17.4z"/>
        <path d="M9.417 17.146a.685.685 0 0 0-1.042.89l3.618 4.236a.685.685 0 0 0 .953.086l8.425-6.854a.685.685 0 1 0-.864-1.063L12.6 20.873l-3.183-3.727z"/>
    </g>
</svg>
