<svg xmlns="http://www.w3.org/2000/svg" width="42" height="34" viewBox="0 0 42 34">
    <path fill="#3699E5" fill-rule="evenodd" d="M41.174 4.741A16.611 16.611 0 0 1 36.4 6.055a8.373 8.373 0 0 0 3.66-4.603 16.566 16.566 0 0 1-5.293 2.017 8.313 8.313 0 0 0-14.369 5.689c0 .655.076 1.285.212 1.893-6.914-.349-13.033-3.65-17.14-8.684A8.249 8.249 0 0 0 2.345 6.55c0 2.88 1.472 5.43 3.697 6.91a8.187 8.187 0 0 1-3.757-1.038v.102c0 4.03 2.868 7.392 6.663 8.16a8.578 8.578 0 0 1-3.757.137 8.34 8.34 0 0 0 7.765 5.774A16.707 16.707 0 0 1 2.63 30.143c-.668 0-1.324-.038-1.979-.111a23.527 23.527 0 0 0 12.748 3.732c15.284 0 23.645-12.662 23.645-23.64l-.026-1.077a16.744 16.744 0 0 0 4.157-4.306"/>
</svg>
