<svg xmlns="http://www.w3.org/2000/svg" width="20" height="17" viewBox="0 0 20 17">
    <path fill="#8CA1AC" fill-rule="evenodd" d="M20.138 1.941a8.224 8.224 0 0 1-2.37.652A4.157 4.157 0 0 0 19.586.3a8.271 8.271 0 0 1-2.623 1.007A4.12 4.12 0 0 0 13.94 0a4.178 4.178 0 0 0-2.933 1.224 4.096 4.096 0 0 0-1.199 2.92c0 .318.036.635.107.945A11.712 11.712 0 0 1 1.4.76a4.156 4.156 0 0 0 1.278 5.533 4.099 4.099 0 0 1-1.871-.519v.053C.798 7.788 2.184 9.486 4.124 9.89a4.137 4.137 0 0 1-1.866.072 4.14 4.14 0 0 0 3.86 2.878 8.28 8.28 0 0 1-5.132 1.774A1.32 1.32 0 0 1 0 14.556a11.659 11.659 0 0 0 6.33 1.865c3.145 0 6.158-1.248 8.367-3.463a11.583 11.583 0 0 0 3.39-8.328c0-.181 0-.36-.013-.538a8.393 8.393 0 0 0 2.064-2.15z"/>
</svg>
