<svg xmlns="http://www.w3.org/2000/svg" width="38" height="39" viewBox="0 0 38 39">
    <path fill="#3BCD36" fill-rule="evenodd" d="M28.786 23.317c-.115-.188-.418-.301-.87-.526-.454-.225-2.687-1.316-3.102-1.465-.415-.15-.72-.225-1.02.225-.304.45-1.174 1.465-1.44 1.766-.263.3-.527.337-.982.112-.454-.225-1.917-.702-3.65-2.234-1.349-1.195-2.26-2.668-2.526-3.119-.263-.45-.026-.693.199-.918.205-.203.455-.526.681-.788.228-.264.303-.453.455-.753.151-.301.076-.563-.04-.788-.112-.225-1.02-2.441-1.399-3.344-.376-.9-.755-.75-1.02-.75s-.568-.038-.87-.038c-.303 0-.794.113-1.21.563-.415.45-1.588 1.541-1.588 3.755 0 2.216 1.625 4.359 1.852 4.657.227.301 3.139 4.997 7.753 6.8 4.615 1.803 4.615 1.201 5.447 1.125.831-.073 2.685-1.088 3.064-2.14.378-1.052.378-1.954.266-2.14m-9.35-19.679c-8.585 0-15.567 6.928-15.567 15.447 0 3.378 1.1 6.51 2.965 9.057L4.89 33.877l5.981-1.9a15.566 15.566 0 0 0 8.565 2.553c8.582 0 15.566-6.928 15.566-15.445 0-8.519-6.984-15.447-15.566-15.447m18.515 15.447c0 10.145-8.29 18.372-18.515 18.372-3.247 0-6.298-.83-8.95-2.286L.235 38.428l3.341-9.856A18.18 18.18 0 0 1 .92 19.085C.92 8.938 9.21.712 19.436.712c10.226 0 18.515 8.226 18.515 18.373"/>
</svg>
